<svg width="19" height="20" viewBox="0 0 19 20" fill="none" xmlns="http://www.w3.org/2000/svg">
<path d="M7 18C7.26522 18 7.51957 18.1054 7.70711 18.2929C7.89465 18.4804 8 18.7348 8 19C8 19.2652 7.89465 19.5196 7.70711 19.7071C7.51957 19.8946 7.26522 20 7 20C6.73479 20 6.48043 19.8946 6.2929 19.7071C6.10536 19.5196 6 19.2652 6 19C6 18.7348 6.10536 18.4804 6.2929 18.2929C6.48043 18.1054 6.73479 18 7 18ZM14 18C14.2652 18 14.5196 18.1054 14.7071 18.2929C14.8946 18.4804 15 18.7348 15 19C15 19.2652 14.8946 19.5196 14.7071 19.7071C14.5196 19.8946 14.2652 20 14 20C13.7348 20 13.4804 19.8946 13.2929 19.7071C13.1054 19.5196 13 19.2652 13 19C13 18.7348 13.1054 18.4804 13.2929 18.2929C13.4804 18.1054 13.7348 18 14 18ZM0.200004 0.900001C0.346095 0.705176 0.558255 0.570352 0.79668 0.520826C1.0351 0.4713 1.28341 0.510475 1.495 0.631001L1.6 0.701001L3.308 1.981C3.59867 2.1991 3.82442 2.49226 3.961 2.829L4.021 3H16.867C17.1381 2.99993 17.4064 3.05498 17.6556 3.16181C17.9047 3.26863 18.1296 3.425 18.3165 3.62141C18.5033 3.81783 18.6483 4.05018 18.7426 4.30436C18.8369 4.55854 18.8786 4.82923 18.865 5.1L18.852 5.248L18.395 8.903C18.2579 10.0029 17.7591 11.0261 16.9771 11.8117C16.1951 12.5973 15.1743 13.1008 14.075 13.243L13.849 13.266L6.536 13.876L6.796 15H15.5C15.7549 15.0003 16 15.0979 16.1854 15.2728C16.3707 15.4478 16.4822 15.687 16.4972 15.9414C16.5121 16.1958 16.4293 16.4464 16.2657 16.6418C16.1021 16.8373 15.8701 16.9629 15.617 16.993L15.5 17H6.796C6.37161 17.0001 5.95819 16.8651 5.61555 16.6147C5.27291 16.3643 5.01881 16.0114 4.89 15.607L4.847 15.45L2.107 3.58L0.400004 2.3C0.187831 2.14087 0.0475619 1.90397 0.0100546 1.64142C-0.0274527 1.37887 0.0408742 1.11217 0.200004 0.900001Z" fill="#A3A3A3"/>
</svg>
