<svg width="19" height="20" viewBox="0 0 19 20" fill="none" xmlns="http://www.w3.org/2000/svg">
<path d="M7 17.5001C7.26522 17.5001 7.51957 17.6054 7.70711 17.793C7.89465 17.9805 8 18.2349 8 18.5001C8 18.7653 7.89465 19.0196 7.70711 19.2072C7.51957 19.3947 7.26522 19.5001 7 19.5001C6.73479 19.5001 6.48043 19.3947 6.2929 19.2072C6.10536 19.0196 6 18.7653 6 18.5001C6 18.2349 6.10536 17.9805 6.2929 17.793C6.48043 17.6054 6.73479 17.5001 7 17.5001ZM14 17.5001C14.2652 17.5001 14.5196 17.6054 14.7071 17.793C14.8946 17.9805 15 18.2349 15 18.5001C15 18.7653 14.8946 19.0196 14.7071 19.2072C14.5196 19.3947 14.2652 19.5001 14 19.5001C13.7348 19.5001 13.4804 19.3947 13.2929 19.2072C13.1054 19.0196 13 18.7653 13 18.5001C13 18.2349 13.1054 17.9805 13.2929 17.793C13.4804 17.6054 13.7348 17.5001 14 17.5001ZM0.200004 0.400077C0.346095 0.205252 0.558255 0.0704285 0.79668 0.0209024C1.0351 -0.0286237 1.28341 0.0105513 1.495 0.131077L1.6 0.201077L3.308 1.48108C3.59867 1.69917 3.82442 1.99234 3.961 2.32908L4.021 2.50008H16.867C17.1381 2.50001 17.4064 2.55506 17.6556 2.66189C17.9047 2.76871 18.1296 2.92508 18.3165 3.12149C18.5033 3.3179 18.6483 3.55026 18.7426 3.80443C18.8369 4.05861 18.8786 4.32931 18.865 4.60008L18.852 4.74808L18.395 8.40308C18.2579 9.503 17.7591 10.5262 16.9771 11.3118C16.1951 12.0974 15.1743 12.6008 14.075 12.7431L13.849 12.7661L6.536 13.3761L6.796 14.5001H15.5C15.7549 14.5004 16 14.598 16.1854 14.7729C16.3707 14.9479 16.4822 15.187 16.4972 15.4415C16.5121 15.6959 16.4293 15.9465 16.2657 16.1419C16.1021 16.3374 15.8701 16.463 15.617 16.4931L15.5 16.5001H6.796C6.37161 16.5001 5.95819 16.3652 5.61555 16.1148C5.27291 15.8644 5.01881 15.5115 4.89 15.1071L4.847 14.9501L2.107 3.08008L0.400004 1.80008C0.187831 1.64095 0.0475619 1.40405 0.0100546 1.1415C-0.0274527 0.878948 0.0408742 0.612251 0.200004 0.400077Z" fill="#F58244"/>
</svg>
