<svg width="20" height="20" viewBox="0 0 20 20" fill="none" xmlns="http://www.w3.org/2000/svg">
<path fill-rule="evenodd" clip-rule="evenodd" d="M0.334944 5.875C-0.205056 7.002 -0.0150556 8.321 0.364944 10.958L0.642944 12.895C1.12994 16.283 1.37394 17.976 2.54894 18.988C3.72394 20 5.44694 20 8.89394 20H11.1059C14.5529 20 16.2759 20 17.4509 18.988C18.6259 17.976 18.8699 16.283 19.3569 12.895L19.6359 10.958C20.0159 8.321 20.2059 7.002 19.6649 5.875C19.1249 4.748 17.9739 4.062 15.6729 2.692L14.2879 1.867C12.1999 0.622 11.1539 0 9.99994 0C8.84594 0 7.80094 0.622 5.71194 1.867L4.32694 2.692C2.02694 4.062 0.875944 4.748 0.334944 5.875ZM6.24994 16C6.24994 15.8011 6.32896 15.6103 6.46961 15.4697C6.61027 15.329 6.80103 15.25 6.99994 15.25H12.9999C13.1989 15.25 13.3896 15.329 13.5303 15.4697C13.6709 15.6103 13.7499 15.8011 13.7499 16C13.7499 16.1989 13.6709 16.3897 13.5303 16.5303C13.3896 16.671 13.1989 16.75 12.9999 16.75H6.99994C6.80103 16.75 6.61027 16.671 6.46961 16.5303C6.32896 16.3897 6.24994 16.1989 6.24994 16Z" fill="#F58244"/>
</svg>
