<svg width="20" height="20" viewBox="0 0 20 20" fill="none" xmlns="http://www.w3.org/2000/svg">
<path fill-rule="evenodd" clip-rule="evenodd" d="M0.335005 5.875C-0.204995 7.002 -0.0149945 8.321 0.365005 10.958L0.643005 12.895C1.13001 16.283 1.37401 17.976 2.54901 18.988C3.72401 20 5.44701 20 8.89401 20H11.106C14.553 20 16.276 20 17.451 18.988C18.626 17.976 18.87 16.283 19.357 12.895L19.636 10.958C20.016 8.321 20.206 7.002 19.665 5.875C19.125 4.748 17.974 4.062 15.673 2.692L14.288 1.867C12.2 0.622 11.154 0 10 0C8.84601 0 7.80101 0.622 5.71201 1.867L4.32701 2.692C2.02701 4.062 0.876006 4.748 0.335005 5.875ZM6.25001 16C6.25001 15.8011 6.32902 15.6103 6.46968 15.4697C6.61033 15.329 6.80109 15.25 7.00001 15.25H13C13.1989 15.25 13.3897 15.329 13.5303 15.4697C13.671 15.6103 13.75 15.8011 13.75 16C13.75 16.1989 13.671 16.3897 13.5303 16.5303C13.3897 16.671 13.1989 16.75 13 16.75H7.00001C6.80109 16.75 6.61033 16.671 6.46968 16.5303C6.32902 16.3897 6.25001 16.1989 6.25001 16Z" fill="#A3A3A3"/>
</svg>
