<svg width="20" height="21" viewBox="0 0 20 21" fill="none" xmlns="http://www.w3.org/2000/svg">
<path fill-rule="evenodd" clip-rule="evenodd" d="M2.144 2.33565L0.866789 6.42948C0.654492 6.79302 0.51342 7.19368 0.451122 7.61002L0.327873 8.42927C-0.150107 11.6092 -0.105209 14.8459 0.460789 18.0114C0.572592 18.6363 0.885235 19.2077 1.35126 19.6389C1.81729 20.07 2.41125 20.3373 3.043 20.4002L4.52925 20.5489C8.09141 20.9017 11.6777 20.9017 15.2387 20.5489L16.725 20.4014C17.3571 20.3387 17.9515 20.0713 18.4177 19.6399C18.884 19.2085 19.1967 18.6367 19.3084 18.0114C19.8751 14.8455 19.9198 11.6096 19.4413 8.42927L19.318 7.61002C19.2534 7.17685 19.1035 6.76081 18.877 6.38598L17.624 2.34169C17.465 1.82817 17.163 1.37056 16.7535 1.02239C16.3439 0.674232 15.8436 0.449928 15.3112 0.375732C11.7104 -0.125244 8.05756 -0.125244 4.45675 0.375732C3.92511 0.449587 3.42542 0.673046 3.01594 1.02006C2.60646 1.36707 2.30406 1.82333 2.144 2.33565ZM15.0611 2.17011C11.6258 1.69214 8.14092 1.69214 4.70566 2.17011C4.51447 2.19686 4.3348 2.27739 4.18762 2.40233C4.04043 2.52727 3.93178 2.69146 3.87433 2.87577L3.26896 4.81636C3.31366 4.81032 3.35958 4.80427 3.4055 4.80065L4.58725 4.68344C8.11075 4.33302 11.6584 4.33302 15.1819 4.68344L16.3637 4.80065C16.4072 4.80427 16.4495 4.81032 16.493 4.81515L15.8924 2.87698C15.8354 2.6923 15.7269 2.5277 15.5797 2.40249C15.4324 2.27729 15.2525 2.19667 15.0611 2.17011ZM14.7179 10.504C14.9583 10.504 15.1888 10.4085 15.3587 10.2385C15.5287 10.0686 15.6242 9.83808 15.6242 9.59773C15.6242 9.35738 15.5287 9.12687 15.3587 8.95692C15.1888 8.78696 14.9583 8.69148 14.7179 8.69148H5.05125C4.8109 8.69148 4.58039 8.78696 4.41043 8.95692C4.24048 9.12687 4.145 9.35738 4.145 9.59773C4.145 9.83808 4.24048 10.0686 4.41043 10.2385C4.58039 10.4085 4.8109 10.504 5.05125 10.504H14.7179Z" fill="#A3A3A3"/>
</svg>
