<svg width="17" height="22" viewBox="0 0 17 22" fill="none" xmlns="http://www.w3.org/2000/svg">
<path fill-rule="evenodd" clip-rule="evenodd" d="M6.91652 0C6.0413 0 5.20193 0.347678 4.58306 0.966548C3.96419 1.58542 3.61652 2.42479 3.61652 3.3V3.8316C2.66724 3.92315 1.72083 4.04241 0.778516 4.1892C0.660015 4.20534 0.545919 4.24494 0.442896 4.30569C0.339873 4.36643 0.249991 4.44709 0.178499 4.54297C0.107008 4.63885 0.055343 4.74801 0.0265228 4.86408C-0.00229747 4.98015 -0.0076946 5.10081 0.0106467 5.21899C0.0289879 5.33717 0.0706996 5.45051 0.133344 5.55239C0.195989 5.65426 0.278311 5.74263 0.375499 5.81233C0.472686 5.88203 0.582791 5.93166 0.699378 5.95832C0.815965 5.98498 0.936696 5.98813 1.05452 5.9676L1.23332 5.9412L2.24252 18.5628C2.30859 19.3898 2.68376 20.1616 3.29331 20.7245C3.90286 21.2873 4.70205 21.5999 5.53172 21.6H11.3001C12.1298 21.6002 12.9291 21.288 13.5389 20.7253C14.1487 20.1627 14.5241 19.391 14.5905 18.564L15.5997 5.94L15.7785 5.9676C16.0122 5.99943 16.249 5.93829 16.438 5.79734C16.627 5.65638 16.7532 5.44687 16.7894 5.21386C16.8255 4.98085 16.7688 4.74295 16.6314 4.55134C16.4939 4.35972 16.2868 4.22968 16.0545 4.1892C15.1122 4.04254 14.1658 3.92329 13.2165 3.8316V3.3C13.2165 2.42479 12.8688 1.58542 12.25 0.966548C11.6311 0.347678 10.7917 0 9.91652 0H6.91652ZM8.41652 3.6C9.42452 3.6 10.4241 3.63 11.4165 3.69V3.3C11.4165 2.472 10.7445 1.8 9.91652 1.8H6.91652C6.08852 1.8 5.41652 2.472 5.41652 3.3V3.69C6.40892 3.63 7.40852 3.6 8.41652 3.6ZM6.71252 8.064C6.70297 7.82531 6.59899 7.60018 6.42346 7.43815C6.24792 7.27612 6.01521 7.19045 5.77652 7.2C5.53782 7.20955 5.3127 7.31353 5.15066 7.48906C4.98863 7.66459 4.90297 7.89731 4.91252 8.136L5.27252 17.136C5.27724 17.2542 5.3052 17.3703 5.3548 17.4777C5.4044 17.5851 5.47466 17.6816 5.56158 17.7619C5.64849 17.8421 5.75036 17.9044 5.86136 17.9453C5.97236 17.9861 6.09033 18.0047 6.20852 18C6.32671 17.9953 6.44281 17.9673 6.55019 17.9177C6.65757 17.8681 6.75414 17.7979 6.83437 17.7109C6.9146 17.624 6.97692 17.5222 7.01778 17.4112C7.05865 17.3002 7.07724 17.1822 7.07252 17.064L6.71252 8.064ZM11.9205 8.136C11.9252 8.01781 11.9066 7.89985 11.8658 7.78884C11.8249 7.67784 11.7626 7.57598 11.6824 7.48906C11.6021 7.40214 11.5056 7.33188 11.3982 7.28229C11.2908 7.23269 11.1747 7.20473 11.0565 7.2C10.8178 7.19045 10.5851 7.27612 10.4096 7.43815C10.234 7.60018 10.1301 7.82531 10.1205 8.064L9.76052 17.064C9.75579 17.1822 9.77439 17.3002 9.81525 17.4112C9.85611 17.5222 9.91844 17.624 9.99866 17.7109C10.0789 17.7979 10.1755 17.8681 10.2828 17.9177C10.3902 17.9673 10.5063 17.9953 10.6245 18C10.7427 18.0047 10.8607 17.9861 10.9717 17.9453C11.0827 17.9044 11.1845 17.8421 11.2715 17.7619C11.3584 17.6816 11.4286 17.5851 11.4782 17.4777C11.5278 17.3703 11.5558 17.2542 11.5605 17.136L11.9205 8.136Z" fill="#FF0000"/>
</svg>
